<mxfile host="Electron" agent="Mozilla/5.0 (X11; Linux x86_64) AppleWebKit/537.36 (KHTML, like Gecko) draw.io/24.7.17 Chrome/128.0.6613.36 Electron/32.0.1 Safari/537.36" version="24.7.17">
  <diagram id="0d0418cf-194d-6f34-59b4-59e4f961d9f4" name="Page-1">
    <mxGraphModel dx="2920" dy="2443" grid="1" gridSize="10" guides="1" tooltips="1" connect="1" arrows="1" fold="1" page="1" pageScale="1" pageWidth="850" pageHeight="1100" background="#ffffff" math="0" shadow="0">
      <root>
        <mxCell id="0" />
        <mxCell id="1" parent="0" />
        <mxCell id="AC4Yjh_FDViJJu1EFxwh-1" value="wb_i2c" style="rounded=1;whiteSpace=wrap;html=1;fontSize=20;fillColor=#dae8fc;strokeWidth=1;fontStyle=0;strokeColor=#000000;" parent="1" vertex="1">
          <mxGeometry x="1" y="440" width="120" height="60" as="geometry" />
        </mxCell>
        <mxCell id="PTtlULXs9aAdY1gIThPs-3" value="&lt;font style=&quot;font-size: 20px;&quot;&gt;VS_2&lt;/font&gt;" style="rounded=1;whiteSpace=wrap;html=1;strokeColor=default;fillColor=default;align=right;verticalAlign=bottom;" parent="1" vertex="1">
          <mxGeometry x="-390" y="-145" width="204" height="135" as="geometry" />
        </mxCell>
        <mxCell id="PTtlULXs9aAdY1gIThPs-1" value="&lt;font style=&quot;font-size: 20px;&quot;&gt;VS_1&lt;/font&gt;" style="rounded=1;whiteSpace=wrap;html=1;strokeColor=default;fillColor=default;align=right;verticalAlign=bottom;" parent="1" vertex="1">
          <mxGeometry x="290" y="-30" width="160" height="170" as="geometry" />
        </mxCell>
        <mxCell id="FLBWLRREEo4RobXQaIjN-500" value="" style="rounded=1;whiteSpace=wrap;html=1;fontSize=20;fillColor=#DAE8FC;" parent="1" vertex="1">
          <mxGeometry x="-371" y="-130" width="170" height="90" as="geometry" />
        </mxCell>
        <mxCell id="FLBWLRREEo4RobXQaIjN-583" value="" style="endArrow=classic;html=1;rounded=0;fontSize=20;" parent="1" source="FLBWLRREEo4RobXQaIjN-495" target="FLBWLRREEo4RobXQaIjN-580" edge="1">
          <mxGeometry width="50" height="50" relative="1" as="geometry">
            <mxPoint x="-280" y="-80" as="sourcePoint" />
            <mxPoint x="-230" y="-90" as="targetPoint" />
          </mxGeometry>
        </mxCell>
        <mxCell id="FLBWLRREEo4RobXQaIjN-495" value="YM2149" style="rounded=1;whiteSpace=wrap;html=1;fontSize=20;fillColor=#DAE8FC;" parent="1" vertex="1">
          <mxGeometry x="-346" y="-110" width="130" height="60" as="geometry" />
        </mxCell>
        <mxCell id="FLBWLRREEo4RobXQaIjN-517" value="USB HID" style="rounded=1;whiteSpace=wrap;html=1;fontSize=20;fillColor=#dae8fc;strokeColor=#000000;strokeWidth=1;" parent="1" vertex="1">
          <mxGeometry x="-311" y="270" width="111" height="50" as="geometry" />
        </mxCell>
        <mxCell id="FLBWLRREEo4RobXQaIjN-560" value="" style="rounded=0;whiteSpace=wrap;html=1;fontSize=20;fillColor=#000000;strokeColor=#000000;" parent="1" vertex="1">
          <mxGeometry x="-211" y="295" width="10" height="10" as="geometry" />
        </mxCell>
        <mxCell id="FLBWLRREEo4RobXQaIjN-397" value="wbxbar Wishbone&lt;br&gt;Crossbar" style="rounded=0;whiteSpace=wrap;html=1;fontSize=20;fontStyle=0;fillColor=#dae8fc;strokeColor=#6c8ebf;strokeWidth=1;" parent="1" vertex="1">
          <mxGeometry x="-0.2" y="160" width="510.2" height="80" as="geometry" />
        </mxCell>
        <mxCell id="FLBWLRREEo4RobXQaIjN-398" value="128K&lt;br&gt;DPRAM&lt;br&gt;CMEM" style="rounded=1;whiteSpace=wrap;html=1;fontSize=20;fillColor=#dae8fc;strokeWidth=2;strokeColor=#6c8ebf;" parent="1" vertex="1">
          <mxGeometry x="304.8" y="280" width="120" height="100" as="geometry" />
        </mxCell>
        <mxCell id="FLBWLRREEo4RobXQaIjN-399" value="128K&lt;br&gt;DPRAM&lt;br&gt;DMEM" style="rounded=1;whiteSpace=wrap;html=1;fontSize=20;fillColor=#dae8fc;strokeWidth=2;strokeColor=#6c8ebf;" parent="1" vertex="1">
          <mxGeometry x="393" y="400" width="120" height="100" as="geometry" />
        </mxCell>
        <mxCell id="FLBWLRREEo4RobXQaIjN-400" value="Ibex&lt;br style=&quot;font-size: 20px&quot;&gt;RV32IMCB&lt;br style=&quot;font-size: 20px&quot;&gt;" style="rounded=1;whiteSpace=wrap;html=1;fontSize=20;fillColor=#dae8fc;strokeColor=#6c8ebf;strokeWidth=1;fontStyle=1" parent="1" vertex="1">
          <mxGeometry x="-0.2" y="40" width="120" height="80" as="geometry" />
        </mxCell>
        <mxCell id="FLBWLRREEo4RobXQaIjN-401" value="riscv-dbg&lt;br style=&quot;font-size: 20px;&quot;&gt;JTAG DTM&lt;br style=&quot;font-size: 20px;&quot;&gt;" style="rounded=1;whiteSpace=wrap;html=1;fontSize=20;fillColor=#DAE8FC;strokeColor=default;" parent="1" vertex="1">
          <mxGeometry x="64.89999999999999" y="-80" width="140.2" height="80" as="geometry" />
        </mxCell>
        <mxCell id="FLBWLRREEo4RobXQaIjN-402" value="LiteDRAM MEMC" style="rounded=1;whiteSpace=wrap;html=1;fontSize=20;fillColor=#DAE8FC;strokeColor=default;" parent="1" vertex="1">
          <mxGeometry x="159.8" y="280" width="120" height="80" as="geometry" />
        </mxCell>
        <mxCell id="FLBWLRREEo4RobXQaIjN-403" value="PicoRV&lt;br&gt;DMA" style="rounded=1;whiteSpace=wrap;html=1;fontSize=20;fillColor=#dae8fc;strokeColor=#6c8ebf;strokeWidth=1;fontStyle=1" parent="1" vertex="1">
          <mxGeometry x="160" y="40" width="120" height="80" as="geometry" />
        </mxCell>
        <mxCell id="FLBWLRREEo4RobXQaIjN-404" value="VERA Graphics&lt;br&gt;128KB VRAM&lt;br&gt;" style="rounded=1;whiteSpace=wrap;html=1;fontSize=20;fillColor=#dae8fc;strokeColor=#6c8ebf;fontStyle=1;strokeWidth=1;" parent="1" vertex="1">
          <mxGeometry x="304.8" y="-10" width="120" height="120" as="geometry" />
        </mxCell>
        <mxCell id="FLBWLRREEo4RobXQaIjN-405" value="&lt;span style=&quot;background-color: initial;&quot;&gt;vs0_j1b&lt;/span&gt;" style="rounded=1;whiteSpace=wrap;html=1;fontSize=20;strokeWidth=3;fontStyle=1;fillColor=#FFFF88;" parent="1" vertex="1">
          <mxGeometry x="1" y="280" width="120" height="70" as="geometry" />
        </mxCell>
        <mxCell id="FLBWLRREEo4RobXQaIjN-419" value="" style="rounded=0;whiteSpace=wrap;html=1;fontSize=20;fillColor=#000000;" parent="1" vertex="1">
          <mxGeometry x="35.8" y="160" width="10" height="10" as="geometry" />
        </mxCell>
        <mxCell id="FLBWLRREEo4RobXQaIjN-422" value="" style="endArrow=classic;html=1;rounded=0;fontSize=20;strokeWidth=1;" parent="1" source="FLBWLRREEo4RobXQaIjN-441" edge="1">
          <mxGeometry width="50" height="50" relative="1" as="geometry">
            <mxPoint x="40.8" y="130" as="sourcePoint" />
            <mxPoint x="40.8" y="160" as="targetPoint" />
          </mxGeometry>
        </mxCell>
        <mxCell id="FLBWLRREEo4RobXQaIjN-429" value="" style="endArrow=classic;html=1;rounded=0;fontSize=20;strokeWidth=1;" parent="1" source="FLBWLRREEo4RobXQaIjN-442" target="FLBWLRREEo4RobXQaIjN-430" edge="1">
          <mxGeometry width="50" height="50" relative="1" as="geometry">
            <mxPoint x="80.8" y="130" as="sourcePoint" />
            <mxPoint x="-185.2" y="195" as="targetPoint" />
          </mxGeometry>
        </mxCell>
        <mxCell id="FLBWLRREEo4RobXQaIjN-430" value="" style="rounded=0;whiteSpace=wrap;html=1;fontSize=20;fillColor=#000000;" parent="1" vertex="1">
          <mxGeometry x="75.8" y="160" width="10" height="10" as="geometry" />
        </mxCell>
        <mxCell id="FLBWLRREEo4RobXQaIjN-441" value="" style="rounded=0;whiteSpace=wrap;html=1;fontSize=20;fillColor=#000000;" parent="1" vertex="1">
          <mxGeometry x="35.8" y="110" width="10" height="10" as="geometry" />
        </mxCell>
        <mxCell id="FLBWLRREEo4RobXQaIjN-442" value="" style="rounded=0;whiteSpace=wrap;html=1;fontSize=20;fillColor=#000000;" parent="1" vertex="1">
          <mxGeometry x="75.8" y="110" width="10" height="10" as="geometry" />
        </mxCell>
        <mxCell id="FLBWLRREEo4RobXQaIjN-444" value="" style="rounded=0;whiteSpace=wrap;html=1;fontSize=20;fillColor=#000000;" parent="1" vertex="1">
          <mxGeometry x="359.8" y="160" width="10" height="10" as="geometry" />
        </mxCell>
        <mxCell id="FLBWLRREEo4RobXQaIjN-445" value="" style="rounded=0;whiteSpace=wrap;html=1;fontSize=20;fillColor=#000000;" parent="1" vertex="1">
          <mxGeometry x="359.8" y="100" width="10" height="10" as="geometry" />
        </mxCell>
        <mxCell id="FLBWLRREEo4RobXQaIjN-446" value="" style="endArrow=classic;html=1;rounded=0;fontSize=20;" parent="1" source="FLBWLRREEo4RobXQaIjN-444" target="FLBWLRREEo4RobXQaIjN-445" edge="1">
          <mxGeometry width="50" height="50" relative="1" as="geometry">
            <mxPoint x="114.80000000000001" y="370" as="sourcePoint" />
            <mxPoint x="164.8" y="320" as="targetPoint" />
          </mxGeometry>
        </mxCell>
        <mxCell id="FLBWLRREEo4RobXQaIjN-448" value="" style="rounded=0;whiteSpace=wrap;html=1;fontSize=20;fillColor=#000000;" parent="1" vertex="1">
          <mxGeometry x="214.99999999999994" y="110" width="10" height="10" as="geometry" />
        </mxCell>
        <mxCell id="FLBWLRREEo4RobXQaIjN-449" value="" style="rounded=0;whiteSpace=wrap;html=1;fontSize=20;fillColor=#000000;" parent="1" vertex="1">
          <mxGeometry x="214.79999999999995" y="160" width="10" height="10" as="geometry" />
        </mxCell>
        <mxCell id="FLBWLRREEo4RobXQaIjN-450" value="" style="endArrow=classic;html=1;rounded=0;fontSize=20;strokeWidth=1;" parent="1" source="FLBWLRREEo4RobXQaIjN-448" target="FLBWLRREEo4RobXQaIjN-449" edge="1">
          <mxGeometry width="50" height="50" relative="1" as="geometry">
            <mxPoint x="129.8" y="270" as="sourcePoint" />
            <mxPoint x="179.8" y="220" as="targetPoint" />
          </mxGeometry>
        </mxCell>
        <mxCell id="FLBWLRREEo4RobXQaIjN-455" value="" style="rounded=0;whiteSpace=wrap;html=1;fontSize=20;fillColor=#000000;" parent="1" vertex="1">
          <mxGeometry x="35.8" y="280" width="10" height="10" as="geometry" />
        </mxCell>
        <mxCell id="FLBWLRREEo4RobXQaIjN-456" value="" style="rounded=0;whiteSpace=wrap;html=1;fontSize=20;fillColor=#000000;" parent="1" vertex="1">
          <mxGeometry x="35.8" y="230" width="10" height="10" as="geometry" />
        </mxCell>
        <mxCell id="FLBWLRREEo4RobXQaIjN-457" value="" style="endArrow=classic;html=1;rounded=0;fontSize=20;" parent="1" source="FLBWLRREEo4RobXQaIjN-456" target="FLBWLRREEo4RobXQaIjN-455" edge="1">
          <mxGeometry width="50" height="50" relative="1" as="geometry">
            <mxPoint x="139.8" y="280" as="sourcePoint" />
            <mxPoint x="189.8" y="230" as="targetPoint" />
          </mxGeometry>
        </mxCell>
        <mxCell id="FLBWLRREEo4RobXQaIjN-459" value="" style="rounded=0;whiteSpace=wrap;html=1;fontSize=20;fillColor=#000000;" parent="1" vertex="1">
          <mxGeometry x="75.8" y="230" width="10" height="10" as="geometry" />
        </mxCell>
        <mxCell id="FLBWLRREEo4RobXQaIjN-460" value="" style="rounded=0;whiteSpace=wrap;html=1;fontSize=20;fillColor=#000000;" parent="1" vertex="1">
          <mxGeometry x="75.8" y="280" width="10" height="10" as="geometry" />
        </mxCell>
        <mxCell id="FLBWLRREEo4RobXQaIjN-461" value="" style="endArrow=classic;html=1;rounded=0;fontSize=20;" parent="1" source="FLBWLRREEo4RobXQaIjN-460" target="FLBWLRREEo4RobXQaIjN-459" edge="1">
          <mxGeometry width="50" height="50" relative="1" as="geometry">
            <mxPoint x="139.8" y="280" as="sourcePoint" />
            <mxPoint x="189.8" y="230" as="targetPoint" />
          </mxGeometry>
        </mxCell>
        <mxCell id="FLBWLRREEo4RobXQaIjN-462" value="" style="rounded=0;whiteSpace=wrap;html=1;fontSize=20;fillColor=#000000;" parent="1" vertex="1">
          <mxGeometry x="214.8" y="280" width="10" height="10" as="geometry" />
        </mxCell>
        <mxCell id="FLBWLRREEo4RobXQaIjN-463" value="" style="rounded=0;whiteSpace=wrap;html=1;fontSize=20;fillColor=#000000;" parent="1" vertex="1">
          <mxGeometry x="214.8" y="230" width="10" height="10" as="geometry" />
        </mxCell>
        <mxCell id="FLBWLRREEo4RobXQaIjN-464" value="" style="endArrow=classic;html=1;rounded=0;fontSize=20;strokeWidth=1;" parent="1" source="FLBWLRREEo4RobXQaIjN-463" target="FLBWLRREEo4RobXQaIjN-462" edge="1">
          <mxGeometry width="50" height="50" relative="1" as="geometry">
            <mxPoint x="139.8" y="280" as="sourcePoint" />
            <mxPoint x="189.8" y="230" as="targetPoint" />
          </mxGeometry>
        </mxCell>
        <mxCell id="FLBWLRREEo4RobXQaIjN-466" value="" style="rounded=0;whiteSpace=wrap;html=1;fontSize=20;fillColor=#000000;" parent="1" vertex="1">
          <mxGeometry x="336.8" y="280" width="10" height="10" as="geometry" />
        </mxCell>
        <mxCell id="FLBWLRREEo4RobXQaIjN-467" value="" style="rounded=0;whiteSpace=wrap;html=1;fontSize=20;fillColor=#000000;" parent="1" vertex="1">
          <mxGeometry x="336.8" y="230" width="10" height="10" as="geometry" />
        </mxCell>
        <mxCell id="FLBWLRREEo4RobXQaIjN-468" value="" style="endArrow=classic;html=1;rounded=0;fontSize=20;strokeWidth=1;" parent="1" source="FLBWLRREEo4RobXQaIjN-467" target="FLBWLRREEo4RobXQaIjN-466" edge="1">
          <mxGeometry width="50" height="50" relative="1" as="geometry">
            <mxPoint x="124.80000000000001" y="280" as="sourcePoint" />
            <mxPoint x="174.8" y="230" as="targetPoint" />
          </mxGeometry>
        </mxCell>
        <mxCell id="FLBWLRREEo4RobXQaIjN-469" value="" style="rounded=0;whiteSpace=wrap;html=1;fontSize=20;fillColor=#000000;" parent="1" vertex="1">
          <mxGeometry x="377.8" y="280" width="10" height="10" as="geometry" />
        </mxCell>
        <mxCell id="FLBWLRREEo4RobXQaIjN-470" value="" style="rounded=0;whiteSpace=wrap;html=1;fontSize=20;fillColor=#000000;" parent="1" vertex="1">
          <mxGeometry x="377.8" y="230" width="10" height="10" as="geometry" />
        </mxCell>
        <mxCell id="FLBWLRREEo4RobXQaIjN-471" value="" style="endArrow=classic;html=1;rounded=0;fontSize=20;strokeWidth=1;" parent="1" source="FLBWLRREEo4RobXQaIjN-470" target="FLBWLRREEo4RobXQaIjN-469" edge="1">
          <mxGeometry width="50" height="50" relative="1" as="geometry">
            <mxPoint x="124.80000000000001" y="280" as="sourcePoint" />
            <mxPoint x="174.8" y="230" as="targetPoint" />
          </mxGeometry>
        </mxCell>
        <mxCell id="FLBWLRREEo4RobXQaIjN-472" value="" style="rounded=0;whiteSpace=wrap;html=1;fontSize=20;fillColor=#000000;" parent="1" vertex="1">
          <mxGeometry x="434" y="400" width="10" height="10" as="geometry" />
        </mxCell>
        <mxCell id="FLBWLRREEo4RobXQaIjN-473" value="" style="rounded=0;whiteSpace=wrap;html=1;fontSize=20;fillColor=#000000;" parent="1" vertex="1">
          <mxGeometry x="434" y="230" width="10" height="10" as="geometry" />
        </mxCell>
        <mxCell id="FLBWLRREEo4RobXQaIjN-474" value="" style="endArrow=classic;html=1;rounded=0;fontSize=20;strokeWidth=1;" parent="1" source="FLBWLRREEo4RobXQaIjN-473" target="FLBWLRREEo4RobXQaIjN-472" edge="1">
          <mxGeometry width="50" height="50" relative="1" as="geometry">
            <mxPoint x="124.80000000000001" y="280" as="sourcePoint" />
            <mxPoint x="174.8" y="230" as="targetPoint" />
          </mxGeometry>
        </mxCell>
        <mxCell id="FLBWLRREEo4RobXQaIjN-475" value="" style="rounded=0;whiteSpace=wrap;html=1;fontSize=20;fillColor=#000000;" parent="1" vertex="1">
          <mxGeometry x="469.9999999999999" y="400" width="10" height="10" as="geometry" />
        </mxCell>
        <mxCell id="FLBWLRREEo4RobXQaIjN-476" value="" style="rounded=0;whiteSpace=wrap;html=1;fontSize=20;fillColor=#000000;" parent="1" vertex="1">
          <mxGeometry x="469.9999999999999" y="230" width="10" height="10" as="geometry" />
        </mxCell>
        <mxCell id="FLBWLRREEo4RobXQaIjN-477" value="" style="endArrow=classic;html=1;rounded=0;fontSize=20;strokeWidth=1;" parent="1" source="FLBWLRREEo4RobXQaIjN-476" target="FLBWLRREEo4RobXQaIjN-475" edge="1">
          <mxGeometry width="50" height="50" relative="1" as="geometry">
            <mxPoint x="124.80000000000001" y="280" as="sourcePoint" />
            <mxPoint x="174.8" y="230" as="targetPoint" />
          </mxGeometry>
        </mxCell>
        <mxCell id="FLBWLRREEo4RobXQaIjN-479" value="&lt;span&gt;wbxbar&lt;br&gt;Wishbone&lt;br&gt;Shared&lt;br&gt;Bus&lt;/span&gt;" style="rounded=0;whiteSpace=wrap;html=1;fontSize=20;fillColor=#dae8fc;strokeWidth=1;strokeColor=#6c8ebf;fontStyle=0" parent="1" vertex="1">
          <mxGeometry x="-160" y="-300" width="120" height="860" as="geometry" />
        </mxCell>
        <mxCell id="FLBWLRREEo4RobXQaIjN-480" value="" style="rounded=0;whiteSpace=wrap;html=1;fontSize=20;fillColor=#000000;" parent="1" vertex="1">
          <mxGeometry x="-50" y="195" width="10" height="10" as="geometry" />
        </mxCell>
        <mxCell id="FLBWLRREEo4RobXQaIjN-481" value="" style="rounded=0;whiteSpace=wrap;html=1;fontSize=20;fillColor=#000000;" parent="1" vertex="1">
          <mxGeometry x="-0.2" y="195" width="10" height="10" as="geometry" />
        </mxCell>
        <mxCell id="FLBWLRREEo4RobXQaIjN-482" value="" style="endArrow=classic;html=1;rounded=0;fontSize=20;edgeStyle=orthogonalEdgeStyle;strokeWidth=1;" parent="1" source="FLBWLRREEo4RobXQaIjN-481" target="FLBWLRREEo4RobXQaIjN-480" edge="1">
          <mxGeometry width="50" height="50" relative="1" as="geometry">
            <mxPoint x="140" y="400" as="sourcePoint" />
            <mxPoint x="190" y="350" as="targetPoint" />
          </mxGeometry>
        </mxCell>
        <mxCell id="FLBWLRREEo4RobXQaIjN-485" value="" style="rounded=0;whiteSpace=wrap;html=1;fontSize=20;fillColor=#000000;" parent="1" vertex="1">
          <mxGeometry x="64.9" y="-45" width="10" height="10" as="geometry" />
        </mxCell>
        <mxCell id="FLBWLRREEo4RobXQaIjN-486" value="" style="rounded=0;whiteSpace=wrap;html=1;fontSize=20;fillColor=#000000;" parent="1" vertex="1">
          <mxGeometry x="-50" y="-46" width="10" height="10" as="geometry" />
        </mxCell>
        <mxCell id="FLBWLRREEo4RobXQaIjN-489" value="" style="rounded=0;whiteSpace=wrap;html=1;fontSize=20;fillColor=#000000;" parent="1" vertex="1">
          <mxGeometry x="214.99999999999994" y="40" width="10" height="10" as="geometry" />
        </mxCell>
        <mxCell id="FLBWLRREEo4RobXQaIjN-490" value="" style="rounded=0;whiteSpace=wrap;html=1;fontSize=20;fillColor=#000000;" parent="1" vertex="1">
          <mxGeometry x="-50" y="10" width="10" height="10" as="geometry" />
        </mxCell>
        <mxCell id="FLBWLRREEo4RobXQaIjN-492" value="" style="rounded=0;whiteSpace=wrap;html=1;fontSize=20;fillColor=#000000;" parent="1" vertex="1">
          <mxGeometry x="214.8" y="350" width="10" height="10" as="geometry" />
        </mxCell>
        <mxCell id="FLBWLRREEo4RobXQaIjN-493" value="" style="rounded=0;whiteSpace=wrap;html=1;fontSize=20;fillColor=#000000;" parent="1" vertex="1">
          <mxGeometry x="-50" y="390" width="10" height="10" as="geometry" />
        </mxCell>
        <mxCell id="FLBWLRREEo4RobXQaIjN-494" value="" style="endArrow=classic;html=1;rounded=0;fontSize=20;edgeStyle=orthogonalEdgeStyle;" parent="1" source="FLBWLRREEo4RobXQaIjN-493" target="FLBWLRREEo4RobXQaIjN-492" edge="1">
          <mxGeometry width="50" height="50" relative="1" as="geometry">
            <mxPoint x="140" y="400" as="sourcePoint" />
            <mxPoint x="190" y="350" as="targetPoint" />
          </mxGeometry>
        </mxCell>
        <mxCell id="FLBWLRREEo4RobXQaIjN-496" value="2 x YM2149/&lt;br&gt;JT49 Sound" style="rounded=1;whiteSpace=wrap;html=1;fontSize=20;fillColor=#DAE8FC;" parent="1" vertex="1">
          <mxGeometry x="-360" y="-120" width="130" height="60" as="geometry" />
        </mxCell>
        <mxCell id="FLBWLRREEo4RobXQaIjN-497" value="" style="rounded=0;whiteSpace=wrap;html=1;fontSize=20;fillColor=#000000;" parent="1" vertex="1">
          <mxGeometry x="-211" y="-85" width="10" height="10" as="geometry" />
        </mxCell>
        <mxCell id="FLBWLRREEo4RobXQaIjN-498" value="" style="rounded=0;whiteSpace=wrap;html=1;fontSize=20;fillColor=#000000;" parent="1" vertex="1">
          <mxGeometry x="-160" y="-85" width="10" height="10" as="geometry" />
        </mxCell>
        <mxCell id="FLBWLRREEo4RobXQaIjN-499" value="" style="endArrow=classic;html=1;rounded=0;fontSize=20;" parent="1" source="FLBWLRREEo4RobXQaIjN-498" target="FLBWLRREEo4RobXQaIjN-497" edge="1">
          <mxGeometry width="50" height="50" relative="1" as="geometry">
            <mxPoint x="140" y="350" as="sourcePoint" />
            <mxPoint x="190" y="300" as="targetPoint" />
          </mxGeometry>
        </mxCell>
        <mxCell id="FLBWLRREEo4RobXQaIjN-501" value="sdspi" style="rounded=1;whiteSpace=wrap;html=1;fontSize=20;fillColor=#dae8fc;strokeColor=#6c8ebf;strokeWidth=1;fontStyle=1" parent="1" vertex="1">
          <mxGeometry x="-320.99995117187495" y="10" width="120" height="60" as="geometry" />
        </mxCell>
        <mxCell id="FLBWLRREEo4RobXQaIjN-502" value="" style="rounded=0;whiteSpace=wrap;html=1;fontSize=20;fillColor=#000000;strokeColor=default;" parent="1" vertex="1">
          <mxGeometry x="-211" y="35" width="10" height="10" as="geometry" />
        </mxCell>
        <mxCell id="FLBWLRREEo4RobXQaIjN-503" value="" style="rounded=0;whiteSpace=wrap;html=1;fontSize=20;fillColor=#000000;" parent="1" vertex="1">
          <mxGeometry x="-160" y="35" width="10" height="10" as="geometry" />
        </mxCell>
        <mxCell id="FLBWLRREEo4RobXQaIjN-504" value="" style="endArrow=classic;html=1;rounded=0;fontSize=20;" parent="1" source="FLBWLRREEo4RobXQaIjN-503" target="FLBWLRREEo4RobXQaIjN-502" edge="1">
          <mxGeometry width="50" height="50" relative="1" as="geometry">
            <mxPoint x="140" y="370" as="sourcePoint" />
            <mxPoint x="190" y="320" as="targetPoint" />
          </mxGeometry>
        </mxCell>
        <mxCell id="FLBWLRREEo4RobXQaIjN-505" value="wbuart32" style="rounded=1;whiteSpace=wrap;html=1;fontSize=20;fillColor=#dae8fc;strokeColor=#6c8ebf;strokeWidth=1;fontStyle=1" parent="1" vertex="1">
          <mxGeometry x="-320.99995117187495" y="90" width="120" height="60" as="geometry" />
        </mxCell>
        <mxCell id="FLBWLRREEo4RobXQaIjN-506" value="" style="rounded=0;whiteSpace=wrap;html=1;fontSize=20;fillColor=#000000;" parent="1" vertex="1">
          <mxGeometry x="-211" y="115" width="10" height="10" as="geometry" />
        </mxCell>
        <mxCell id="FLBWLRREEo4RobXQaIjN-507" value="" style="rounded=0;whiteSpace=wrap;html=1;fontSize=20;fillColor=#000000;" parent="1" vertex="1">
          <mxGeometry x="-160" y="115" width="10" height="10" as="geometry" />
        </mxCell>
        <mxCell id="FLBWLRREEo4RobXQaIjN-508" value="" style="endArrow=classic;html=1;rounded=0;fontSize=20;" parent="1" source="FLBWLRREEo4RobXQaIjN-507" target="FLBWLRREEo4RobXQaIjN-506" edge="1">
          <mxGeometry width="50" height="50" relative="1" as="geometry">
            <mxPoint x="140" y="370" as="sourcePoint" />
            <mxPoint x="190" y="320" as="targetPoint" />
          </mxGeometry>
        </mxCell>
        <mxCell id="FLBWLRREEo4RobXQaIjN-513" value="USB HID" style="rounded=1;whiteSpace=wrap;html=1;fontSize=20;fillColor=#dae8fc;strokeColor=#6c8ebf;strokeWidth=1;fontStyle=1" parent="1" vertex="1">
          <mxGeometry x="-321" y="260" width="111" height="50" as="geometry" />
        </mxCell>
        <mxCell id="FLBWLRREEo4RobXQaIjN-528" value="&lt;font style=&quot;font-size: 20px;&quot;&gt;wb_timer&lt;br style=&quot;font-size: 20px;&quot;&gt;&lt;/font&gt;" style="rounded=1;whiteSpace=wrap;html=1;fillColor=#dae8fc;strokeColor=#6c8ebf;strokeWidth=1;fontStyle=1;fontSize=20;" parent="1" vertex="1">
          <mxGeometry x="-320" y="340" width="119" height="60" as="geometry" />
        </mxCell>
        <mxCell id="FLBWLRREEo4RobXQaIjN-532" value="SPI Flash" style="rounded=1;whiteSpace=wrap;html=1;fontSize=20;align=center;fillColor=#dae8fc;strokeWidth=1;fontStyle=1;strokeColor=#6c8ebf;" parent="1" vertex="1">
          <mxGeometry x="-320" y="420" width="120" height="60" as="geometry" />
        </mxCell>
        <mxCell id="FLBWLRREEo4RobXQaIjN-555" value="" style="endArrow=classic;html=1;rounded=0;fontSize=20;" parent="1" source="FLBWLRREEo4RobXQaIjN-557" target="FLBWLRREEo4RobXQaIjN-556" edge="1">
          <mxGeometry width="50" height="50" relative="1" as="geometry">
            <mxPoint x="-375" y="340" as="sourcePoint" />
            <mxPoint x="-350" y="290" as="targetPoint" />
          </mxGeometry>
        </mxCell>
        <mxCell id="FLBWLRREEo4RobXQaIjN-556" value="" style="rounded=0;whiteSpace=wrap;html=1;fontSize=20;fillColor=#000000;strokeColor=#000000;" parent="1" vertex="1">
          <mxGeometry x="-221" y="280" width="10" height="10" as="geometry" />
        </mxCell>
        <mxCell id="FLBWLRREEo4RobXQaIjN-557" value="" style="rounded=0;whiteSpace=wrap;html=1;fontSize=20;strokeColor=#000000;fillColor=#000000;" parent="1" vertex="1">
          <mxGeometry x="-160" y="280" width="10" height="10" as="geometry" />
        </mxCell>
        <mxCell id="FLBWLRREEo4RobXQaIjN-559" value="" style="endArrow=classic;html=1;rounded=0;fontSize=20;" parent="1" source="FLBWLRREEo4RobXQaIjN-561" target="FLBWLRREEo4RobXQaIjN-560" edge="1">
          <mxGeometry width="50" height="50" relative="1" as="geometry">
            <mxPoint x="-375" y="340" as="sourcePoint" />
            <mxPoint x="-350" y="290" as="targetPoint" />
          </mxGeometry>
        </mxCell>
        <mxCell id="FLBWLRREEo4RobXQaIjN-561" value="" style="rounded=0;whiteSpace=wrap;html=1;fontSize=20;strokeColor=#000000;fillColor=#000000;" parent="1" vertex="1">
          <mxGeometry x="-160" y="295" width="10" height="10" as="geometry" />
        </mxCell>
        <mxCell id="FLBWLRREEo4RobXQaIjN-562" value="" style="endArrow=classic;html=1;rounded=0;fontSize=20;" parent="1" source="FLBWLRREEo4RobXQaIjN-564" target="FLBWLRREEo4RobXQaIjN-563" edge="1">
          <mxGeometry width="50" height="50" relative="1" as="geometry">
            <mxPoint x="-375" y="340" as="sourcePoint" />
            <mxPoint x="-350" y="290" as="targetPoint" />
          </mxGeometry>
        </mxCell>
        <mxCell id="FLBWLRREEo4RobXQaIjN-563" value="" style="rounded=0;whiteSpace=wrap;html=1;fontSize=20;fillColor=#000000;strokeColor=#000000;" parent="1" vertex="1">
          <mxGeometry x="-210" y="365" width="10" height="10" as="geometry" />
        </mxCell>
        <mxCell id="FLBWLRREEo4RobXQaIjN-564" value="" style="rounded=0;whiteSpace=wrap;html=1;fontSize=20;strokeColor=#000000;fillColor=#000000;" parent="1" vertex="1">
          <mxGeometry x="-160" y="365" width="10" height="10" as="geometry" />
        </mxCell>
        <mxCell id="FLBWLRREEo4RobXQaIjN-566" value="" style="endArrow=classic;html=1;rounded=0;fontSize=20;" parent="1" source="FLBWLRREEo4RobXQaIjN-568" target="FLBWLRREEo4RobXQaIjN-567" edge="1">
          <mxGeometry width="50" height="50" relative="1" as="geometry">
            <mxPoint x="-375" y="340" as="sourcePoint" />
            <mxPoint x="-350" y="290" as="targetPoint" />
          </mxGeometry>
        </mxCell>
        <mxCell id="FLBWLRREEo4RobXQaIjN-567" value="" style="rounded=0;whiteSpace=wrap;html=1;fontSize=20;fillColor=#000000;strokeColor=#000000;" parent="1" vertex="1">
          <mxGeometry x="-210" y="445" width="10" height="10" as="geometry" />
        </mxCell>
        <mxCell id="FLBWLRREEo4RobXQaIjN-568" value="" style="rounded=0;whiteSpace=wrap;html=1;fontSize=20;strokeColor=#000000;fillColor=#000000;" parent="1" vertex="1">
          <mxGeometry x="-160" y="445" width="10" height="10" as="geometry" />
        </mxCell>
        <mxCell id="FLBWLRREEo4RobXQaIjN-578" value="256MB DDR3" style="rounded=1;whiteSpace=wrap;html=1;fontSize=20;fillColor=#DAE8FC;strokeColor=default;" parent="1" vertex="1">
          <mxGeometry x="190" y="420" width="120" height="80" as="geometry" />
        </mxCell>
        <mxCell id="FLBWLRREEo4RobXQaIjN-579" value="" style="endArrow=classic;html=1;rounded=0;fontSize=20;exitX=0.75;exitY=1;exitDx=0;exitDy=0;entryX=0.5;entryY=0;entryDx=0;entryDy=0;edgeStyle=orthogonalEdgeStyle;" parent="1" source="FLBWLRREEo4RobXQaIjN-402" target="FLBWLRREEo4RobXQaIjN-578" edge="1">
          <mxGeometry width="50" height="50" relative="1" as="geometry">
            <mxPoint x="240" y="500" as="sourcePoint" />
            <mxPoint x="290" y="450" as="targetPoint" />
          </mxGeometry>
        </mxCell>
        <mxCell id="FLBWLRREEo4RobXQaIjN-580" value="Audio DAC" style="rounded=1;whiteSpace=wrap;html=1;fontColor=#000000;strokeColor=#000000;strokeWidth=1;fillColor=#DAE8FC;fontSize=20;" parent="1" vertex="1">
          <mxGeometry x="-321" y="-230" width="80" height="60" as="geometry" />
        </mxCell>
        <mxCell id="FLBWLRREEo4RobXQaIjN-585" value="" style="endArrow=classic;html=1;rounded=0;fontSize=20;" parent="1" source="FLBWLRREEo4RobXQaIjN-496" edge="1">
          <mxGeometry width="50" height="50" relative="1" as="geometry">
            <mxPoint x="-280" y="-40" as="sourcePoint" />
            <mxPoint x="-295" y="-170" as="targetPoint" />
          </mxGeometry>
        </mxCell>
        <mxCell id="FLBWLRREEo4RobXQaIjN-586" value="microSD" style="rounded=1;whiteSpace=wrap;html=1;fontSize=20;align=center;fillColor=#DAE8FC;strokeColor=default;" parent="1" vertex="1">
          <mxGeometry x="-460" y="13" width="100" height="54" as="geometry" />
        </mxCell>
        <mxCell id="FLBWLRREEo4RobXQaIjN-587" value="" style="endArrow=classic;html=1;rounded=0;fontSize=20;strokeColor=default;" parent="1" source="FLBWLRREEo4RobXQaIjN-501" target="FLBWLRREEo4RobXQaIjN-586" edge="1">
          <mxGeometry width="50" height="50" relative="1" as="geometry">
            <mxPoint x="-130" y="270" as="sourcePoint" />
            <mxPoint x="-80" y="220" as="targetPoint" />
          </mxGeometry>
        </mxCell>
        <mxCell id="FLBWLRREEo4RobXQaIjN-588" value="16MB Flash" style="rounded=1;whiteSpace=wrap;html=1;fontSize=20;align=center;strokeWidth=1;fillColor=#dae8fc;fontStyle=1;strokeColor=#6c8ebf;" parent="1" vertex="1">
          <mxGeometry x="-451" y="420" width="91" height="60" as="geometry" />
        </mxCell>
        <mxCell id="FLBWLRREEo4RobXQaIjN-589" value="" style="endArrow=classic;html=1;rounded=0;fontSize=20;fontStyle=1;strokeWidth=3;" parent="1" source="FLBWLRREEo4RobXQaIjN-532" target="FLBWLRREEo4RobXQaIjN-588" edge="1">
          <mxGeometry width="50" height="50" relative="1" as="geometry">
            <mxPoint x="-160" y="250" as="sourcePoint" />
            <mxPoint x="-110" y="200" as="targetPoint" />
          </mxGeometry>
        </mxCell>
        <mxCell id="FLBWLRREEo4RobXQaIjN-598" value="" style="endArrow=classic;html=1;rounded=0;fontSize=20;strokeWidth=3;" parent="1" source="FLBWLRREEo4RobXQaIjN-600" target="FLBWLRREEo4RobXQaIjN-599" edge="1">
          <mxGeometry width="50" height="50" relative="1" as="geometry">
            <mxPoint x="-375" y="345" as="sourcePoint" />
            <mxPoint x="-350" y="295" as="targetPoint" />
          </mxGeometry>
        </mxCell>
        <mxCell id="FLBWLRREEo4RobXQaIjN-599" value="" style="rounded=0;whiteSpace=wrap;html=1;fontSize=20;fillColor=#000000;strokeColor=#000000;" parent="1" vertex="1">
          <mxGeometry x="-0.1999999999999993" y="465" width="10" height="10" as="geometry" />
        </mxCell>
        <mxCell id="FLBWLRREEo4RobXQaIjN-600" value="" style="rounded=0;whiteSpace=wrap;html=1;fontSize=20;strokeColor=#000000;fillColor=#000000;" parent="1" vertex="1">
          <mxGeometry x="-50" y="465" width="10" height="10" as="geometry" />
        </mxCell>
        <mxCell id="FLBWLRREEo4RobXQaIjN-602" value="&lt;b&gt;Audio PDM Out&lt;/b&gt;" style="endArrow=classic;html=1;rounded=0;fontSize=20;exitX=0.5;exitY=0;exitDx=0;exitDy=0;" parent="1" source="FLBWLRREEo4RobXQaIjN-580" edge="1">
          <mxGeometry x="1" y="20" width="50" height="50" relative="1" as="geometry">
            <mxPoint y="-380" as="sourcePoint" />
            <mxPoint x="-280" y="-270" as="targetPoint" />
            <mxPoint x="20" y="-20" as="offset" />
          </mxGeometry>
        </mxCell>
        <mxCell id="FLBWLRREEo4RobXQaIjN-603" value="VGA Out" style="endArrow=classic;html=1;rounded=0;fontSize=20;exitX=0.5;exitY=0;exitDx=0;exitDy=0;fontStyle=1" parent="1" source="FLBWLRREEo4RobXQaIjN-404" edge="1">
          <mxGeometry x="1" y="30" width="50" height="50" relative="1" as="geometry">
            <mxPoint x="-15" y="60" as="sourcePoint" />
            <mxPoint x="365" y="-100" as="targetPoint" />
            <mxPoint x="30" y="-29" as="offset" />
          </mxGeometry>
        </mxCell>
        <mxCell id="FLBWLRREEo4RobXQaIjN-604" value="&lt;b&gt;Serial&lt;br&gt;Port&lt;/b&gt;" style="endArrow=classic;html=1;rounded=0;fontSize=20;exitX=0;exitY=0.5;exitDx=0;exitDy=0;" parent="1" source="FLBWLRREEo4RobXQaIjN-505" edge="1">
          <mxGeometry x="1" y="30" width="50" height="50" relative="1" as="geometry">
            <mxPoint x="-230" y="240" as="sourcePoint" />
            <mxPoint x="-380" y="120" as="targetPoint" />
            <mxPoint x="-30" y="-30" as="offset" />
          </mxGeometry>
        </mxCell>
        <mxCell id="vOdKWW2uF6KcDU7mGMfG-7" value="" style="endArrow=classic;html=1;rounded=0;fontSize=20;" parent="1" source="vOdKWW2uF6KcDU7mGMfG-9" target="vOdKWW2uF6KcDU7mGMfG-8" edge="1">
          <mxGeometry width="50" height="50" relative="1" as="geometry">
            <mxPoint x="90.8" y="140" as="sourcePoint" />
            <mxPoint x="-175.2" y="205" as="targetPoint" />
          </mxGeometry>
        </mxCell>
        <mxCell id="vOdKWW2uF6KcDU7mGMfG-8" value="" style="rounded=0;whiteSpace=wrap;html=1;fontSize=20;fillColor=#000000;" parent="1" vertex="1">
          <mxGeometry x="130" y="160" width="10" height="10" as="geometry" />
        </mxCell>
        <mxCell id="vOdKWW2uF6KcDU7mGMfG-9" value="" style="rounded=0;whiteSpace=wrap;html=1;fontSize=20;fillColor=#000000;" parent="1" vertex="1">
          <mxGeometry x="130" y="-10" width="10" height="10" as="geometry" />
        </mxCell>
        <mxCell id="vOdKWW2uF6KcDU7mGMfG-10" value="" style="endArrow=classic;html=1;rounded=0;fontSize=20;strokeColor=default;jumpStyle=arc;exitX=1;exitY=0.5;exitDx=0;exitDy=0;entryX=0.5;entryY=0;entryDx=0;entryDy=0;edgeStyle=orthogonalEdgeStyle;jumpSize=11;" parent="1" source="FLBWLRREEo4RobXQaIjN-490" target="FLBWLRREEo4RobXQaIjN-489" edge="1">
          <mxGeometry width="50" height="50" relative="1" as="geometry">
            <mxPoint x="220" y="-10" as="sourcePoint" />
            <mxPoint x="270" y="-60" as="targetPoint" />
          </mxGeometry>
        </mxCell>
        <mxCell id="vOdKWW2uF6KcDU7mGMfG-11" value="2xUSB&lt;br&gt;Port" style="endArrow=classic;html=1;rounded=0;fontSize=20;exitX=0;exitY=0.5;exitDx=0;exitDy=0;strokeWidth=3;" parent="1" source="FLBWLRREEo4RobXQaIjN-513" edge="1">
          <mxGeometry x="1" y="30" width="50" height="50" relative="1" as="geometry">
            <mxPoint x="-310.99995117187495" y="140" as="sourcePoint" />
            <mxPoint x="-390" y="285" as="targetPoint" />
            <mxPoint x="-30" y="-30" as="offset" />
          </mxGeometry>
        </mxCell>
        <mxCell id="7LKKXxm1RjJAEzMIIUW1-1" value="wb_gpio" style="rounded=1;whiteSpace=wrap;html=1;fontSize=20;fillColor=#dae8fc;strokeColor=#6c8ebf;strokeWidth=1;fontStyle=1" parent="1" vertex="1">
          <mxGeometry x="-321" y="180" width="120" height="60" as="geometry" />
        </mxCell>
        <mxCell id="7LKKXxm1RjJAEzMIIUW1-2" value="" style="rounded=0;whiteSpace=wrap;html=1;fontSize=20;fillColor=#000000;" parent="1" vertex="1">
          <mxGeometry x="-211" y="205" width="10" height="10" as="geometry" />
        </mxCell>
        <mxCell id="7LKKXxm1RjJAEzMIIUW1-3" value="" style="rounded=0;whiteSpace=wrap;html=1;fontSize=20;fillColor=#000000;" parent="1" vertex="1">
          <mxGeometry x="-160" y="205" width="10" height="10" as="geometry" />
        </mxCell>
        <mxCell id="7LKKXxm1RjJAEzMIIUW1-4" value="" style="endArrow=classic;html=1;rounded=0;fontSize=20;" parent="1" source="7LKKXxm1RjJAEzMIIUW1-3" target="7LKKXxm1RjJAEzMIIUW1-2" edge="1">
          <mxGeometry width="50" height="50" relative="1" as="geometry">
            <mxPoint x="150" y="410" as="sourcePoint" />
            <mxPoint x="200" y="360" as="targetPoint" />
          </mxGeometry>
        </mxCell>
        <mxCell id="l52KPxR791TBj5OUNAbj-2" value="RTCC" style="rounded=1;whiteSpace=wrap;html=1;fontSize=20;fillColor=#dae8fc;strokeWidth=1;fontStyle=0;strokeColor=#000000;" parent="1" vertex="1">
          <mxGeometry x="1.0000000000000007" y="540" width="120" height="60" as="geometry" />
        </mxCell>
        <mxCell id="l52KPxR791TBj5OUNAbj-3" value="" style="endArrow=classic;html=1;rounded=0;strokeWidth=3;" parent="1" source="AC4Yjh_FDViJJu1EFxwh-1" target="l52KPxR791TBj5OUNAbj-2" edge="1">
          <mxGeometry width="50" height="50" relative="1" as="geometry">
            <mxPoint x="230" y="650" as="sourcePoint" />
            <mxPoint x="280" y="600" as="targetPoint" />
          </mxGeometry>
        </mxCell>
        <mxCell id="3y8YzpZcpMf6LMHjk1oB-1" value="reset_ctrl" style="rounded=1;whiteSpace=wrap;html=1;fillColor=#dae8fc;strokeColor=#6c8ebf;strokeWidth=1;fontStyle=1;fontSize=20;" parent="1" vertex="1">
          <mxGeometry x="-320" y="500" width="119" height="60" as="geometry" />
        </mxCell>
        <mxCell id="3y8YzpZcpMf6LMHjk1oB-2" value="" style="endArrow=classic;html=1;rounded=0;fontSize=20;" parent="1" source="3y8YzpZcpMf6LMHjk1oB-4" target="3y8YzpZcpMf6LMHjk1oB-3" edge="1">
          <mxGeometry width="50" height="50" relative="1" as="geometry">
            <mxPoint x="-375" y="500" as="sourcePoint" />
            <mxPoint x="-350" y="450" as="targetPoint" />
          </mxGeometry>
        </mxCell>
        <mxCell id="3y8YzpZcpMf6LMHjk1oB-3" value="" style="rounded=0;whiteSpace=wrap;html=1;fontSize=20;fillColor=#000000;strokeColor=#000000;" parent="1" vertex="1">
          <mxGeometry x="-210" y="525" width="10" height="10" as="geometry" />
        </mxCell>
        <mxCell id="3y8YzpZcpMf6LMHjk1oB-4" value="" style="rounded=0;whiteSpace=wrap;html=1;fontSize=20;strokeColor=#000000;fillColor=#000000;" parent="1" vertex="1">
          <mxGeometry x="-160" y="525" width="10" height="10" as="geometry" />
        </mxCell>
        <mxCell id="BsIaHRnGgtnOzwSZiJPs-1" value="" style="endArrow=classic;html=1;rounded=0;entryX=0;entryY=0.5;entryDx=0;entryDy=0;" parent="1" target="FLBWLRREEo4RobXQaIjN-485" edge="1">
          <mxGeometry width="50" height="50" relative="1" as="geometry">
            <mxPoint x="-45" y="-40" as="sourcePoint" />
            <mxPoint x="60" y="-40" as="targetPoint" />
          </mxGeometry>
        </mxCell>
        <mxCell id="BsIaHRnGgtnOzwSZiJPs-3" value="&lt;font style=&quot;font-size: 18px;&quot;&gt;&lt;b&gt;j1b_test Program&lt;/b&gt;&lt;/font&gt;" style="rounded=1;whiteSpace=wrap;html=1;verticalAlign=bottom;fillColor=#d5e8d4;strokeColor=#82b366;" parent="1" vertex="1">
          <mxGeometry y="-330" width="310" height="160" as="geometry" />
        </mxCell>
        <mxCell id="BsIaHRnGgtnOzwSZiJPs-4" value="j1b_hal" style="rounded=0;whiteSpace=wrap;html=1;fontSize=18;fontStyle=1" parent="1" vertex="1">
          <mxGeometry x="40.5" y="-270" width="90" height="60" as="geometry" />
        </mxCell>
        <mxCell id="BsIaHRnGgtnOzwSZiJPs-6" value="" style="endArrow=none;html=1;rounded=0;exitX=0;exitY=0;exitDx=0;exitDy=0;dashed=1;strokeWidth=3;" parent="1" source="FLBWLRREEo4RobXQaIjN-400" edge="1">
          <mxGeometry width="50" height="50" relative="1" as="geometry">
            <mxPoint y="-90" as="sourcePoint" />
            <mxPoint y="-180" as="targetPoint" />
          </mxGeometry>
        </mxCell>
        <mxCell id="BsIaHRnGgtnOzwSZiJPs-7" value="" style="endArrow=none;html=1;rounded=0;exitX=1;exitY=0;exitDx=0;exitDy=0;dashed=1;strokeWidth=3;entryX=0.961;entryY=0.998;entryDx=0;entryDy=0;entryPerimeter=0;" parent="1" source="FLBWLRREEo4RobXQaIjN-400" target="BsIaHRnGgtnOzwSZiJPs-3" edge="1">
          <mxGeometry width="50" height="50" relative="1" as="geometry">
            <mxPoint x="110" y="-120" as="sourcePoint" />
            <mxPoint x="160" y="-170" as="targetPoint" />
          </mxGeometry>
        </mxCell>
        <mxCell id="BsIaHRnGgtnOzwSZiJPs-8" value="j1b SwapForth Firmware&lt;div&gt;Image&lt;/div&gt;" style="rounded=0;whiteSpace=wrap;html=1;fontSize=18;fontStyle=1" parent="1" vertex="1">
          <mxGeometry x="159.8" y="-310" width="110.2" height="100" as="geometry" />
        </mxCell>
        <mxCell id="GPlTKmR3RTirqb_WPOpY-1" value="" style="rounded=0;whiteSpace=wrap;html=1;fillColor=none;strokeColor=none;" vertex="1" parent="1">
          <mxGeometry x="-630" y="85" width="1270" height="60" as="geometry" />
        </mxCell>
      </root>
    </mxGraphModel>
  </diagram>
</mxfile>
